<?xml version="1.0" encoding="utf-8"?>
<svg viewBox="0 0 24.67 38.38" xmlns="http://www.w3.org/2000/svg">
  <defs>
    <style>.cls-1{fill:#231f20;}</style>
  </defs>
  <path style="fill-rule: nonzero; fill: rgb(255, 214, 48); stroke-width: 0px; stroke-linecap: round; stroke-miterlimit: 1; stroke: rgb(255, 214, 48); paint-order: stroke; stroke-opacity: 0;" d="M 12.648 0.733 L 18.298 1.973 L 22.984 7.623 C 22.984 7.623 24.362 12.722 24.362 12.86 C 24.362 12.998 23.535 16.581 23.397 16.581 C 23.259 16.581 19.814 21.267 19.814 21.267 C 19.814 21.267 18.574 23.609 18.574 23.747 C 18.574 23.885 17.471 28.295 17.471 28.295 C 17.471 28.295 17.058 29.535 17.196 29.535 C 17.334 29.535 8.1 29.26 8.1 29.26 L 7.411 26.228 L 6.309 22.92 L 3.828 19.337 L 1.761 15.341 L 0.934 11.482 L 1.899 7.623 C 1.899 7.623 4.241 4.454 4.241 4.316 C 4.241 4.178 7.825 1.698 7.825 1.698 L 12.648 0.733 Z"/>
  <path d="M 18.315 1.544 L 23.054 6.713 L 23.085 6.832 C 23.085 6.832 24.617 12.684 24.617 12.885 C 24.617 13.008 24.397 13.998 24.172 14.916 C 24.059 15.376 23.94 15.837 23.842 16.182 C 23.792 16.356 23.743 16.513 23.703 16.623 C 23.681 16.682 23.653 16.751 23.629 16.796 C 23.614 16.826 23.579 16.881 23.552 16.914 C 23.504 16.972 23.3 17.106 23.152 17.106 C 23.215 17.106 20.271 21.175 19.993 21.559 C 19.842 21.836 18.829 23.751 18.829 23.772 C 18.829 23.971 17.7 28.478 17.7 28.478 C 17.7 28.478 17.603 28.77 17.521 29.065 C 17.481 29.207 17.45 29.333 17.432 29.43 C 17.44 29.452 17.445 29.472 17.448 29.492 C 17.47 29.654 17.314 29.919 17.234 29.973 C 17.195 30 17.125 30.03 17.1 30.038 C 17.061 30.05 17.006 30.057 16.992 30.058 C 16.976 30.06 16.956 30.06 16.951 30.06 C 16.944 30.06 16.935 30.06 16.925 30.059 L 16.925 30.059 C 16.675 30.048 7.84 29.785 7.84 29.785 L 7.453 29.773 L 6.684 26.388 L 5.612 23.171 L 3.154 19.62 L 1.041 15.536 L 0.176 11.498 L 1.194 7.427 L 1.252 7.351 C 1.252 7.351 3.496 4.33 3.496 4.341 C 3.496 3.997 7.295 1.312 7.295 1.312 L 7.378 1.253 L 12.408 0.247 Z M 7.776 2.194 C 7.245 2.552 4.496 4.409 4.496 4.341 C 4.496 4.628 2.486 7.347 2.116 7.862 L 1.202 11.516 L 1.991 15.196 L 4.012 19.104 L 6.516 22.719 L 7.64 26.095 L 8.257 28.797 C 9.719 28.84 14.882 28.994 16.493 29.044 C 16.513 28.962 16.535 28.877 16.558 28.796 C 16.647 28.478 16.722 28.254 16.745 28.181 C 16.821 27.88 17.829 23.849 17.829 23.772 C 17.829 23.517 19.127 21.058 19.127 21.058 L 19.144 21.026 L 19.166 20.996 C 19.166 20.996 22.813 16.106 23.152 16.106 C 23.013 16.106 22.818 16.233 22.782 16.277 C 22.766 16.296 22.744 16.332 22.742 16.335 C 22.746 16.328 22.749 16.32 22.763 16.28 C 22.795 16.194 22.833 16.07 22.88 15.906 C 22.975 15.575 23.089 15.132 23.201 14.678 C 23.423 13.77 23.617 12.9 23.617 12.885 C 23.617 12.81 22.366 8.03 22.149 7.206 L 17.791 2.452 L 12.398 1.269 Z" style="fill: none;"/>
  <path class="cls-1" d="M171.42,73.2a12.22,12.22,0,0,1-2.57,7.11q-2.4,3.26-2.74,3.85a13.92,13.92,0,0,0-1.54,7v0.09h-11V91.19a13.89,13.89,0,0,0-1.63-7,45.25,45.25,0,0,0-2.66-3.85,12.22,12.22,0,0,1-2.57-7.11,11.49,11.49,0,0,1,3.64-8.52,12.41,12.41,0,0,1,17.39,0A11.49,11.49,0,0,1,171.42,73.2Zm-4.2,6.94,0.51-.69a9.93,9.93,0,0,0-1.11-13.88,10.75,10.75,0,0,0-15.08,0,9.93,9.93,0,0,0-1.11,13.88l1.63,2.23a9.09,9.09,0,0,1,1.11,1.8,12.57,12.57,0,0,1,1.8,6.42h1.37V80.31l-2.74-5.48h1.46l2.66,5.48v9.59h2.74V80.31l2.66-5.48h1.46l-2.74,5.48v9.59h1.37a12.89,12.89,0,0,1,1.8-6.42,35.57,35.57,0,0,1,2.06-3.08l0.09-.09Q167.14,80.14,167.22,80.14ZM155,94V92.65h8.22V94H155Zm0,2.74V95.39h8.22v1.37H155Zm1.37,2.74V98.13h5.48V99.5h-5.48Z" transform="matrix(1, 0, 0, 1, -146.75, -61.130001)" style="fill: rgb(35, 31, 31);"/>
</svg>